<svg width="35" height="35" viewBox="0 0 35 35" fill="none" xmlns="http://www.w3.org/2000/svg">
<path d="M17.4975 34.995C27.1611 34.995 34.995 27.1611 34.995 17.4975C34.995 7.83389 27.1611 0 17.4975 0C7.83389 0 0 7.83389 0 17.4975C0 27.1611 7.83389 34.995 17.4975 34.995Z" fill="#7A519B"/>
<path d="M23.9532 27.7632C23.1519 27.5113 22.7991 27.4306 22.4413 27.2895C15.5774 24.4119 10.5831 19.6545 7.80129 12.6696C7.5779 12.1456 7.4757 11.5779 7.5023 11.0088C7.5289 10.4398 7.68361 9.88407 7.95491 9.38315C8.2262 8.88222 8.60707 8.449 9.06913 8.11579C9.53119 7.78257 10.0625 7.55796 10.6235 7.4587C10.951 7.38815 11.4852 7.38311 11.6314 7.57461C12.9194 9.10945 14.1191 10.7163 15.2246 12.3874C15.4212 12.7049 14.8819 13.7784 14.4032 14.1614C13.3096 15.0332 13.2189 16.0512 13.9446 16.9886C14.9601 18.3089 16.1103 19.5198 17.3765 20.602C18.4852 21.5444 19.6191 21.6905 20.7732 20.2845C21.9273 18.8784 23.2225 19.4227 26.3168 21.9627C27.5968 23.0109 27.9244 24.1045 26.8207 25.314C25.92 26.1928 24.962 27.011 23.9532 27.7632Z" fill="white"/>
<path d="M27.2138 16.6863L26.6191 17.7446C26.293 17.3281 26.0361 16.8619 25.8582 16.3637C24.9762 11.3443 23.2376 9.57539 18.1425 8.56747C17.7545 8.48683 17.437 8.10382 17.0893 7.86192C17.4723 7.6553 17.8452 7.29245 18.2383 7.26221C22.6782 6.93464 27.1634 11.43 27.2138 16.6863Z" fill="white"/>
<path d="M24.8906 15.9402L24.1447 16.7969C23.9078 16.434 23.5047 16.0914 23.4593 15.7083C23.1721 13.0021 21.6954 11.4952 19.0295 11.0114C18.6062 10.9358 18.2534 10.4621 17.8654 10.1749C18.3693 9.98841 18.8733 9.59532 19.3319 9.67091C20.8611 9.86402 22.2681 10.6064 23.2907 11.7597C24.3133 12.9131 24.8819 14.3988 24.8906 15.9402Z" fill="white"/>
<path d="M22.5119 15.265L22.0079 16.0059C21.7257 15.764 21.4334 15.5422 21.1764 15.2852C20.5414 14.6553 19.9215 14.0203 19.3067 13.3752C19.0447 13.1031 18.8027 12.8057 18.5659 12.5185C18.9136 12.337 19.2563 12.0145 19.604 12.0145C21.0101 11.9792 22.5018 13.5415 22.5119 15.265Z" fill="white"/>
</svg>
