<svg width="72" height="72" viewBox="0 0 72 72" fill="none" xmlns="http://www.w3.org/2000/svg">
<g clip-path="url(#clip0)" filter="url(#filter0_d)">
<path d="M42 44C40.6155 44 39.2622 44.4105 38.111 45.1797C36.9599 45.9489 36.0627 47.0421 35.5328 48.3212C35.003 49.6003 34.8644 51.0078 35.1345 52.3656C35.4046 53.7235 36.0713 54.9708 37.0503 55.9497C38.0292 56.9287 39.2765 57.5954 40.6344 57.8655C41.9922 58.1356 43.3997 57.997 44.6788 57.4672C45.9579 56.9373 47.0511 56.0401 47.8203 54.889C48.5895 53.7378 49 52.3845 49 51C49 49.1435 48.2625 47.363 46.9498 46.0503C45.637 44.7375 43.8565 44 42 44ZM42 56C41.0111 56 40.0444 55.7068 39.2222 55.1573C38.3999 54.6079 37.759 53.827 37.3806 52.9134C37.0022 51.9998 36.9032 50.9945 37.0961 50.0245C37.289 49.0546 37.7652 48.1637 38.4645 47.4645C39.1637 46.7652 40.0546 46.289 41.0246 46.0961C41.9945 45.9031 42.9998 46.0022 43.9134 46.3806C44.8271 46.759 45.6079 47.3999 46.1574 48.2221C46.7068 49.0444 47 50.0111 47 51C47 52.3261 46.4732 53.5979 45.5355 54.5355C44.5979 55.4732 43.3261 56 42 56Z" fill="#E9C136"/>
<path d="M42 47.5C41.8674 47.5 41.7402 47.5527 41.6464 47.6464C41.5527 47.7402 41.5 47.8674 41.5 48V52C41.5 52.1326 41.5527 52.2598 41.6464 52.3536C41.7402 52.4473 41.8674 52.5 42 52.5C42.1326 52.5 42.2598 52.4473 42.3536 52.3536C42.4473 52.2598 42.5 52.1326 42.5 52V48C42.5 47.8674 42.4473 47.7402 42.3536 47.6464C42.2598 47.5527 42.1326 47.5 42 47.5Z" fill="#E9C136"/>
<path d="M42.19 53.54C42.0683 53.49 41.9317 53.49 41.81 53.54C41.7476 53.5613 41.6922 53.5994 41.65 53.65C41.602 53.6947 41.5638 53.7489 41.538 53.8091C41.5121 53.8694 41.4992 53.9344 41.5 54C41.4851 54.0625 41.4851 54.1275 41.5 54.19C41.5533 54.3104 41.6496 54.4067 41.77 54.46C41.8324 54.4749 41.8975 54.4749 41.96 54.46C42.0225 54.4742 42.0874 54.4742 42.15 54.46C42.2704 54.4067 42.3667 54.3104 42.42 54.19C42.4342 54.1275 42.4342 54.0625 42.42 54C42.4208 53.9344 42.4079 53.8694 42.382 53.8091C42.3562 53.7489 42.318 53.6947 42.27 53.65C42.2506 53.6086 42.2234 53.5713 42.19 53.54Z" fill="#E9C136"/>
<path d="M66 46H53V4.99999C53 3.6739 52.4732 2.40213 51.5355 1.46445C50.5979 0.526769 49.3261 -1.49289e-05 48 -1.49289e-05H43.56C42.8913 -5.3226e-05 42.2418 0.223292 41.7146 0.634557C41.1874 1.04582 40.8127 1.62143 40.65 2.26998L36.24 19.92C36.1755 20.1667 36.1687 20.4249 36.22 20.6746C36.2714 20.9244 36.3797 21.1589 36.5363 21.3601C36.693 21.5612 36.8939 21.7236 37.1235 21.8346C37.353 21.9455 37.605 22.0021 37.86 22H45.18L30 45.66L36.58 27.23C36.6707 26.9786 36.699 26.7089 36.6624 26.4441C36.6259 26.1793 36.5255 25.9274 36.37 25.71C36.2205 25.497 36.0233 25.3219 35.7941 25.1986C35.5649 25.0753 35.3101 25.0073 35.05 25H27.17L30.62 3.46999C30.6885 3.03852 30.6619 2.59731 30.5421 2.17719C30.4223 1.75707 30.2122 1.36818 29.9265 1.0377C29.6408 0.707227 29.2864 0.443138 28.888 0.263896C28.4896 0.0846541 28.0568 -0.0054148 27.62 -1.49289e-05H24C22.6739 -1.49289e-05 21.4021 0.526769 20.4645 1.46445C19.5268 2.40213 19 3.6739 19 4.99999V7.99998C18.7348 7.99998 18.4804 8.10534 18.2929 8.29288C18.1054 8.48041 18 8.73477 18 8.99998V13C18 13.2652 18.1054 13.5196 18.2929 13.7071C18.4804 13.8946 18.7348 14 19 14V17C18.7348 17 18.4804 17.1053 18.2929 17.2929C18.1054 17.4804 18 17.7348 18 18V22C18 22.2652 18.1054 22.5196 18.2929 22.7071C18.4804 22.8946 18.7348 23 19 23V46H6C5.46957 46 4.96086 46.2107 4.58579 46.5858C4.21071 46.9608 4 47.4696 4 48V55C4 55.5304 4.21071 56.0391 4.58579 56.4142C4.96086 56.7893 5.46957 57 6 57H19V59C19 60.3261 19.5268 61.5978 20.4645 62.5355C21.4021 63.4732 22.6739 64 24 64H48C49.3261 64 50.5979 63.4732 51.5355 62.5355C52.4732 61.5978 53 60.3261 53 59V57H66C66.5304 57 67.0391 56.7893 67.4142 56.4142C67.7893 56.0391 68 55.5304 68 55V48C68 47.4696 67.7893 46.9608 67.4142 46.5858C67.0391 46.2107 66.5304 46 66 46ZM55.5 48V50C55.5 50.1326 55.5527 50.2598 55.6464 50.3535C55.7402 50.4473 55.8674 50.5 56 50.5C56.1326 50.5 56.2598 50.4473 56.3536 50.3535C56.4473 50.2598 56.5 50.1326 56.5 50V48H59.5V50C59.5 50.1326 59.5527 50.2598 59.6464 50.3535C59.7402 50.4473 59.8674 50.5 60 50.5C60.1326 50.5 60.2598 50.4473 60.3536 50.3535C60.4473 50.2598 60.5 50.1326 60.5 50V48H63.5V50C63.5 50.1326 63.5527 50.2598 63.6464 50.3535C63.7402 50.4473 63.8674 50.5 64 50.5C64.1326 50.5 64.2598 50.4473 64.3536 50.3535C64.4473 50.2598 64.5 50.1326 64.5 50V48H66V52.5H53V48H55.5ZM43.56 1.99998H48C48.7957 1.99998 49.5587 2.31606 50.1213 2.87866C50.6839 3.44127 51 4.20434 51 4.99999V5.49999H41.91L42.59 2.75998C42.6436 2.54318 42.7682 2.35056 42.944 2.21282C43.1198 2.07508 43.3367 2.00016 43.56 1.99998ZM24 1.99998H27.65C27.7961 1.99852 27.9408 2.0291 28.0738 2.08957C28.2069 2.15004 28.325 2.23893 28.42 2.34998C28.5132 2.46099 28.5811 2.59092 28.6191 2.73079C28.6571 2.87065 28.6642 3.01709 28.64 3.15999L28.27 5.49999H21V4.99999C21 4.20434 21.3161 3.44127 21.8787 2.87866C22.4413 2.31606 23.2044 1.99998 24 1.99998ZM7.5 48V50C7.5 50.1326 7.55268 50.2598 7.64645 50.3535C7.74021 50.4473 7.86739 50.5 8 50.5C8.13261 50.5 8.25979 50.4473 8.35355 50.3535C8.44732 50.2598 8.5 50.1326 8.5 50V48H11.5V50C11.5 50.1326 11.5527 50.2598 11.6464 50.3535C11.7402 50.4473 11.8674 50.5 12 50.5C12.1326 50.5 12.2598 50.4473 12.3536 50.3535C12.4473 50.2598 12.5 50.1326 12.5 50V48H15.5V50C15.5 50.1326 15.5527 50.2598 15.6464 50.3535C15.7402 50.4473 15.8674 50.5 16 50.5C16.1326 50.5 16.2598 50.4473 16.3536 50.3535C16.4473 50.2598 16.5 50.1326 16.5 50V48H19V52.5H6V48H7.5ZM6 55V53.5H19V55H6ZM51 59C51 59.7956 50.6839 60.5587 50.1213 61.1213C49.5587 61.6839 48.7957 62 48 62H24C23.2044 62 22.4413 61.6839 21.8787 61.1213C21.3161 60.5587 21 59.7956 21 59V6.49999H28.11L25.11 25.07C25.0718 25.3068 25.0851 25.5491 25.1489 25.7803C25.2128 26.0115 25.3257 26.2263 25.48 26.41C25.6355 26.5954 25.8298 26.7444 26.0493 26.8464C26.2688 26.9484 26.508 27.0008 26.75 27H34.55L28.16 45C27.924 45.4814 27.8888 46.0368 28.0623 46.5441C28.2357 47.0513 28.6036 47.4689 29.085 47.705C29.3233 47.8219 29.5824 47.8906 29.8473 47.9074C30.1122 47.9242 30.3779 47.8886 30.6291 47.8027C31.1364 47.6292 31.554 47.2614 31.79 46.78L47.19 22.58C47.3515 22.3299 47.4424 22.0408 47.453 21.7433C47.4635 21.4457 47.3934 21.1509 47.25 20.89C47.1078 20.623 46.8961 20.3995 46.6374 20.2428C46.3787 20.0862 46.0824 20.0023 45.78 20H38.28L41.66 6.49999H51V59ZM53 55V53.5H66V55H53Z" fill="#E9C136"/>
</g>
<defs>
<filter id="filter0_d" x="0" y="0" width="72" height="72" filterUnits="userSpaceOnUse" color-interpolation-filters="sRGB">
<feFlood flood-opacity="0" result="BackgroundImageFix"/>
<feColorMatrix in="SourceAlpha" type="matrix" values="0 0 0 0 0 0 0 0 0 0 0 0 0 0 0 0 0 0 127 0"/>
<feOffset dy="4"/>
<feGaussianBlur stdDeviation="2"/>
<feColorMatrix type="matrix" values="0 0 0 0 0 0 0 0 0 0 0 0 0 0 0 0 0 0 0.25 0"/>
<feBlend mode="normal" in2="BackgroundImageFix" result="effect1_dropShadow"/>
<feBlend mode="normal" in="SourceGraphic" in2="effect1_dropShadow" result="shape"/>
</filter>
<clipPath id="clip0">
<rect width="64" height="64" fill="white" transform="translate(4)"/>
</clipPath>
</defs>
</svg>
