<svg width="64" height="64" viewBox="0 0 64 64" fill="none" xmlns="http://www.w3.org/2000/svg">
<path d="M31.9843 10.0755C19.9 10.0755 10.0598 19.9 10.0598 32C10.0598 44.1001 19.9 53.9245 31.9843 53.9245C44.0687 53.9245 53.9088 44.0844 53.9088 32C53.9088 19.9156 44.0687 10.0755 31.9843 10.0755ZM31.9843 52.8259C20.512 52.8259 11.1584 43.488 11.1584 32C11.1584 20.512 20.512 11.1741 31.9843 11.1741C43.4566 11.1741 52.8102 20.5277 52.8102 32C52.8102 43.4723 43.4566 52.8259 31.9843 52.8259Z" fill="#E9C136"/>
<path d="M23.7136 16.5728C23.5566 16.306 23.2271 16.2276 22.9603 16.3688C22.6935 16.5257 22.615 16.8553 22.7563 17.1221L22.9917 17.5145C23.0858 17.6871 23.2742 17.797 23.4625 17.797C23.5566 17.797 23.6508 17.7656 23.7293 17.7185C23.9961 17.5615 24.0745 17.232 23.9333 16.9652L23.7136 16.5728Z" fill="#E9C136"/>
<path d="M46.2658 23.7607C46.36 23.9333 46.5483 24.0432 46.7366 24.0432C46.8308 24.0432 46.925 24.0118 47.0034 23.9647L47.3958 23.7293C47.6626 23.5723 47.7411 23.2428 47.5998 22.976C47.4429 22.7092 47.1133 22.6307 46.8465 22.7719L46.4541 23.0073C46.203 23.1643 46.1089 23.4939 46.2658 23.7607Z" fill="#E9C136"/>
<path d="M40.977 46.4855C40.82 46.2187 40.4905 46.1403 40.2237 46.2815C39.9569 46.4385 39.8784 46.768 40.0197 47.0348L40.2551 47.4272C40.3492 47.5998 40.5375 47.7097 40.7259 47.7097C40.82 47.7097 40.9142 47.6783 40.9927 47.6312C41.2595 47.4743 41.3379 47.1447 41.1967 46.8779L40.977 46.4855Z" fill="#E9C136"/>
<path d="M16.9495 40.051L16.5571 40.2864C16.2903 40.4433 16.2119 40.7729 16.3531 41.0397C16.4473 41.2123 16.6356 41.3222 16.8239 41.3222C16.9181 41.3222 17.0123 41.2908 17.0907 41.2437L17.4831 41.0083C17.7499 40.8514 17.8283 40.5218 17.6871 40.255C17.5459 39.9882 17.2163 39.894 16.9495 40.051Z" fill="#E9C136"/>
<path d="M17.4988 23.0074L17.1064 22.772C16.8396 22.615 16.5101 22.7092 16.3531 22.976C16.1962 23.2428 16.2904 23.5724 16.5572 23.7293L16.9495 23.9647C17.0437 24.0118 17.1378 24.0432 17.2163 24.0432C17.4046 24.0432 17.593 23.949 17.6871 23.7607C17.8598 23.4939 17.7656 23.1643 17.4988 23.0074Z" fill="#E9C136"/>
<path d="M41.0084 16.3688C40.7416 16.2118 40.412 16.306 40.255 16.5728L40.0196 16.9652C39.8627 17.232 39.9569 17.5615 40.2237 17.7185C40.3178 17.7656 40.412 17.7969 40.4905 17.7969C40.6788 17.7969 40.8671 17.7028 40.9613 17.5144L41.1967 17.1221C41.3536 16.8553 41.2752 16.5257 41.0084 16.3688Z" fill="#E9C136"/>
<path d="M47.4115 40.2707L47.0191 40.0353C46.7523 39.8784 46.4228 39.9725 46.2658 40.2393C46.1089 40.5061 46.203 40.8357 46.4698 40.9926L46.8622 41.228C46.9563 41.2751 47.0505 41.3065 47.129 41.3065C47.3173 41.3065 47.5056 41.2124 47.5998 41.024C47.7567 40.7572 47.6783 40.4277 47.4115 40.2707Z" fill="#E9C136"/>
<path d="M23.745 46.2815C23.4782 46.1246 23.1486 46.2187 22.9917 46.4855L22.7563 46.8779C22.5993 47.1447 22.6935 47.4743 22.9603 47.6312C23.0545 47.6783 23.1486 47.7097 23.2271 47.7097C23.4154 47.7097 23.6037 47.6155 23.6979 47.4272L23.9333 47.0348C24.0903 46.768 23.9961 46.4384 23.745 46.2815Z" fill="#E9C136"/>
<path d="M31.9843 16.5885C32.2825 16.5885 32.5336 16.3374 32.5336 16.0393V13.3085C32.5336 13.0103 32.2825 12.7592 31.9843 12.7592C31.6861 12.7592 31.435 13.0103 31.435 13.3085V16.0393C31.435 16.3531 31.6861 16.5885 31.9843 16.5885Z" fill="#E9C136"/>
<path d="M47.3958 32C47.3958 32.2982 47.6469 32.5493 47.9451 32.5493H50.6758C50.974 32.5493 51.2251 32.2982 51.2251 32C51.2251 31.7018 50.974 31.4507 50.6758 31.4507H47.9451C47.6312 31.4507 47.3958 31.7018 47.3958 32Z" fill="#E9C136"/>
<path d="M31.9843 47.4115C31.6861 47.4115 31.435 47.6626 31.435 47.9608V50.6915C31.435 50.9897 31.6861 51.2408 31.9843 51.2408C32.2825 51.2408 32.5336 50.9897 32.5336 50.6915V47.9608C32.5336 47.6469 32.2825 47.4115 31.9843 47.4115Z" fill="#E9C136"/>
<path d="M16.5728 32C16.5728 31.7018 16.3217 31.4507 16.0236 31.4507H13.2928C12.9946 31.4507 12.7435 31.7018 12.7435 32C12.7435 32.2982 12.9946 32.5493 13.2928 32.5493H16.0236C16.3374 32.5493 16.5728 32.2982 16.5728 32Z" fill="#E9C136"/>
<path d="M37.3987 21.6577C37.1319 21.5164 36.8024 21.6263 36.6611 21.8931L31.4978 31.7489V31.7646C31.4821 31.7803 31.4821 31.796 31.4821 31.8273C31.4821 31.843 31.4664 31.8587 31.4664 31.8744C31.4664 31.8901 31.4664 31.9058 31.4507 31.9215C31.4507 31.9372 31.4507 31.9529 31.4507 31.9843V32C31.4507 32.0157 31.4507 32.0157 31.4507 32.0314C31.4507 32.0471 31.4507 32.0628 31.4507 32.0941C31.4507 32.1098 31.4507 32.1255 31.4664 32.1412C31.4664 32.1569 31.4821 32.1726 31.4821 32.1883C31.4821 32.204 31.4978 32.2197 31.4978 32.2354C31.4978 32.2511 31.5135 32.2668 31.5292 32.2825C31.5449 32.2982 31.5449 32.3139 31.5606 32.3296C31.5763 32.3452 31.5763 32.3609 31.592 32.3766C31.6077 32.3923 31.6234 32.408 31.6234 32.408C31.6391 32.4237 31.6548 32.4237 31.6705 32.4394C31.6862 32.4551 31.7018 32.4551 31.7175 32.4708C31.7332 32.4708 31.7332 32.4865 31.7332 32.4865H31.7489C31.7803 32.5022 31.8117 32.5022 31.8274 32.5179C31.8431 32.5179 31.8431 32.5179 31.8588 32.5336C31.8902 32.5493 31.9373 32.5493 31.9686 32.5493H36.7867C37.0849 32.5493 37.336 32.2982 37.336 32C37.336 31.7018 37.0849 31.4507 36.7867 31.4507H32.8789L37.6185 22.3953C37.7754 22.1285 37.6655 21.7989 37.3987 21.6577Z" fill="#E9C136"/>
<path d="M31.9843 6.71704C18.0481 6.71704 6.70132 18.0638 6.70132 32C6.70132 45.9363 18.0324 57.283 31.9843 57.283C45.9363 57.283 57.2673 45.952 57.2673 32C57.2673 18.0481 45.9206 6.71704 31.9843 6.71704ZM31.9843 55.0858C19.2565 55.0858 8.89848 44.7278 8.89848 32C8.89848 19.2722 19.2565 8.9142 31.9843 8.9142C44.7121 8.9142 55.0701 19.2722 55.0701 32C55.0701 44.7278 44.7121 55.0858 31.9843 55.0858Z" fill="#E9C136"/>
<path d="M60.8298 32C60.8298 31.6233 60.8298 31.2467 60.8141 30.87L64 29.0025L63.9215 28.2962C63.7332 26.5856 63.3879 24.8749 62.9171 23.2428L62.7131 22.5522L59.0564 22.0343C58.7896 21.3281 58.5071 20.6219 58.1932 19.9313L60.4061 16.9809L60.0608 16.3531C59.2133 14.8308 58.256 13.4026 57.1888 12.0687L56.7494 11.5037L53.1712 12.4296C52.6533 11.8646 52.1197 11.331 51.5547 10.8131L52.4806 7.23492L51.9156 6.79549C50.5817 5.74399 49.1535 4.77097 47.6312 3.92349L47.0034 3.57823L44.0687 5.80677C43.3781 5.49289 42.6719 5.1947 41.9657 4.9436L41.4478 1.28691L40.7572 1.08288C39.1251 0.612065 37.4144 0.282491 35.7038 0.0784698L34.9976 0L33.13 3.18588C32.3767 3.15449 31.6077 3.15449 30.8543 3.18588L28.9868 0L28.2805 0.0784698C26.5699 0.266797 24.8592 0.612065 23.2271 1.08288L22.5365 1.28691L22.0186 4.9436C21.3124 5.2104 20.6062 5.49289 19.9156 5.80677L16.9495 3.59392L16.3217 3.93919C14.8308 4.77097 13.387 5.74399 12.0373 6.81118L11.4723 7.25061L12.3982 10.8288C11.8333 11.3467 11.2997 11.8803 10.7975 12.4296L7.23492 11.5037L6.79549 12.0687C5.7283 13.4026 4.77097 14.8465 3.92349 16.3531L3.57822 16.9809L5.79107 19.9156C5.47719 20.6062 5.17901 21.3124 4.91221 22.0343L1.25552 22.5522L1.06719 23.2428C0.596371 24.8906 0.266797 26.5856 0.0784698 28.2962L0 29.0025L3.17018 30.87C3.15449 31.2467 3.15449 31.6233 3.15449 32.0157C3.15449 32.3923 3.15449 32.769 3.17018 33.1457L0 35.0132L0.0784698 35.7195C0.266797 37.4301 0.612065 39.1251 1.06719 40.7729L1.25552 41.4635L4.91221 41.9814C5.17901 42.7033 5.47719 43.4095 5.79107 44.0844L3.57822 47.0348L3.92349 47.6626C4.75527 49.1535 5.7126 50.5974 6.79549 51.947L7.23492 52.512L10.7975 51.5861C11.3154 52.1511 11.8489 52.6847 12.4139 53.2026L11.488 56.7651L12.053 57.2045C13.4026 58.2874 14.8465 59.2447 16.3374 60.0765L16.9652 60.4218L19.9156 58.2089C20.6062 58.5228 21.3124 58.821 22.0186 59.0878L22.5365 62.7445L23.2271 62.9328C24.8749 63.4036 26.5699 63.7332 28.2805 63.9215L28.9868 64L30.8543 60.8298C31.6077 60.8612 32.3767 60.8612 33.13 60.8298L34.9976 64L35.7038 63.9215C37.4144 63.7332 39.1094 63.3879 40.7572 62.9328L41.4478 62.7445L41.9657 59.0878C42.6876 58.821 43.3938 58.5228 44.0844 58.2089L47.0348 60.4218L47.6626 60.0765C49.1692 59.229 50.613 58.2717 51.947 57.2045L52.512 56.7651L51.5861 53.2026C52.1511 52.6847 52.6847 52.1511 53.1869 51.6018L56.7651 52.5277L57.2045 51.9627C58.2717 50.613 59.229 49.1692 60.0765 47.6783L60.4218 47.0505L58.1775 44.0844C58.4914 43.3938 58.7896 42.6876 59.0407 41.9814L62.6974 41.4635L62.9014 40.7729C63.3722 39.1408 63.7018 37.4301 63.9058 35.7195L63.9843 35.0132L60.7984 33.1457C60.8141 32.769 60.8298 32.3767 60.8298 32ZM61.6302 36.1746C61.4733 37.2889 61.2536 38.4031 60.9711 39.486L57.4085 39.9882L57.1888 40.6317C56.8279 41.6989 56.3884 42.7347 55.9019 43.7391L55.6037 44.3512L57.7538 47.2232C57.1888 48.1962 56.5454 49.1378 55.8705 50.0324L52.3865 49.1378L51.947 49.64C51.2094 50.4718 50.4247 51.2722 49.5772 52.0098L49.0593 52.4492L49.9539 55.9333C49.0593 56.6081 48.1177 57.2359 47.1447 57.8166L44.2727 55.6508L43.6606 55.949C42.6719 56.4355 41.6204 56.8749 40.5532 57.2359L39.9098 57.4556L39.4076 61.0025C38.3247 61.2849 37.2104 61.5047 36.0961 61.6616L34.2756 58.5699L33.6008 58.617C32.5022 58.6954 31.3566 58.6954 30.258 58.617L29.5831 58.5699L27.7626 61.6616C26.6484 61.5047 25.5341 61.2849 24.4512 61.0025L23.949 57.4556L23.3055 57.2359C22.2384 56.8749 21.1869 56.4355 20.1981 55.949L19.5861 55.6508L16.7141 57.8166C15.7567 57.2516 14.8151 56.6238 13.9049 55.9333L14.7994 52.4492L14.2972 52.0098C13.4654 51.2722 12.665 50.4875 11.9274 49.64L11.488 49.1378L8.00392 50.0324C7.31339 49.1221 6.68563 48.1962 6.12065 47.2232L8.28642 44.3512L7.98823 43.7391C7.50172 42.7504 7.06229 41.7146 6.70132 40.6317L6.48161 39.9882L2.93477 39.486C2.65228 38.4031 2.43256 37.2889 2.27562 36.1746L5.43011 34.3541L5.38303 33.6793C5.35164 33.13 5.33595 32.565 5.33595 32C5.33595 31.435 5.35164 30.87 5.38303 30.3207L5.43011 29.6459L2.3384 27.8254C2.49534 26.7111 2.71506 25.5969 2.99755 24.514L6.54438 24.0118L6.7641 23.3683C7.12506 22.3011 7.56449 21.2496 8.05101 20.2609L8.34919 19.6488L6.18342 16.7769C6.7641 15.8038 7.39186 14.8622 8.0667 13.9676L11.5508 14.8622L11.9902 14.3443C12.7278 13.5125 13.5125 12.7121 14.36 11.9745L14.8622 11.5351L13.9676 8.05101C14.8622 7.37617 15.8038 6.74841 16.7769 6.16773L19.6488 8.3178L20.2609 8.01962C21.2653 7.5331 22.3011 7.09367 23.3683 6.73271L24.0118 6.513L24.514 2.95047C25.5969 2.66798 26.7111 2.44826 27.8254 2.29132L29.6302 5.4615L30.3051 5.41442C31.4036 5.33595 32.5493 5.33595 33.6479 5.41442L34.3227 5.4615L36.1432 2.36979C37.2575 2.52673 38.3718 2.74644 39.4546 3.02894L39.9568 6.59147L40.6003 6.81118C41.6675 7.17214 42.7033 7.61157 43.7077 8.09809L44.3198 8.39627L47.1918 6.2462C48.1648 6.82688 49.1064 7.45464 50.001 8.12948L49.1064 11.6135L49.6086 12.053C50.4404 12.7906 51.2408 13.5753 51.9784 14.4228L52.4179 14.925L55.9019 14.0304C56.5768 14.925 57.2045 15.8666 57.7852 16.8396L55.6351 19.7116L55.9333 20.3237C56.4198 21.3281 56.8592 22.3639 57.2202 23.4311L57.4399 24.0745L61.0025 24.5768C61.2849 25.6596 61.5047 26.7739 61.6616 27.8882L58.5699 29.7087L58.617 30.3835C58.6484 30.9328 58.6641 31.4978 58.6641 32.0628C58.6641 32.6278 58.6484 33.1927 58.617 33.742L58.5699 34.4169L61.6302 36.1746Z" fill="#E9C136"/>
</svg>
