<svg width="64" height="64" viewBox="0 0 64 64" fill="none" xmlns="http://www.w3.org/2000/svg">
<path d="M45.3 25.425C45.3 24.65 44.825 23.975 44.125 23.675C39.425 21.7 35.75 18.05 33.75 13.35C33.45 12.625 32.75 12.175 31.975 12.175C31.2 12.175 30.525 12.625 30.2 13.35C28.225 18.025 24.55 21.675 19.875 23.65C19.175 23.95 18.7 24.625 18.7 25.4C18.7 26.175 19.15 26.85 19.85 27.175C24.35 29.15 28.1 32.95 30.175 37.625C30.475 38.325 31.175 38.775 31.925 38.775C32.675 38.775 33.375 38.325 33.675 37.6C35.625 33.075 39.45 29.275 44.125 27.2C44.85 26.875 45.3 26.175 45.3 25.425ZM31.925 35.675C29.7 31.225 26.075 27.575 21.775 25.425C26.225 23.275 29.8 19.725 31.95 15.275C34.125 19.75 37.7 23.325 42.2 25.45C37.75 27.7 34.075 31.35 31.925 35.675Z" fill="#E9C136"/>
<path d="M43.95 45.2C44.175 45.275 44.475 45.375 44.85 45.35C45.45 45.325 46 45.075 46.425 44.65C46.875 44.2 47.125 43.6 47.1 42.975C47.05 39.025 49.55 35.575 53.3 34.4C53.55 34.325 53.825 34.2 54.025 34.025C54.525 33.65 54.85 33.1 54.925 32.525C55.025 31.9 54.875 31.275 54.5 30.75C52.15 27.575 52.125 23.325 54.475 20.2L54.775 19.85L54.9 19.475C55.1 18.875 55.025 18.225 54.75 17.7C54.45 17.125 53.95 16.7 53.375 16.525C49.625 15.325 47.15 11.9 47.175 7.97501C47.175 7.67501 47.125 7.40001 47.05 7.15001C46.85 6.57501 46.425 6.10001 45.85 5.80001C45.275 5.52501 44.675 5.50001 44.1 5.70001C43.175 6.02501 42.225 6.17501 41.25 6.17501C38.375 6.17501 35.675 4.77501 34.025 2.45001C33.85 2.22501 33.65 2.02501 33.475 1.90001C32.425 1.15001 30.95 1.40001 30.2 2.45001C28.55 4.80001 25.85 6.17501 22.975 6.17501C22 6.17501 21.05 6.02501 20.15 5.70001C19.35 5.42501 18.325 5.62501 17.725 6.27501C17.275 6.72501 17.025 7.32501 17.05 7.95001C17.1 11.9 14.6 15.325 10.875 16.5C10.6 16.575 10.375 16.7 10.125 16.875C9.1 17.65 8.875 19.125 9.65 20.175C12 23.35 12 27.6 9.65 30.775C9.5 30.975 9.375 31.225 9.3 31.45C9.125 32.05 9.175 32.65 9.475 33.25C9.775 33.8 10.275 34.225 10.85 34.4C14.6 35.6 17.075 39.05 17.025 42.925C17 43.225 17.05 43.5 17.15 43.775C17.35 44.35 17.775 44.825 18.35 45.125C18.925 45.4 19.525 45.425 20.1 45.225C21.05 44.9 22.025 44.75 23 44.75C25.9 44.75 28.5 46.125 30.2 48.5C30.35 48.7 30.55 48.9 30.75 49.05C31.15 49.35 31.625 49.5 32.1 49.5C32.225 49.5 32.375 49.5 32.5 49.475C33.125 49.375 33.675 49.025 34.025 48.525C36.175 45.275 40.2 43.95 43.95 45.2ZM32.025 47.1C29.925 44.125 26.5 42.35 22.875 42.35C21.65 42.35 20.425 42.55 19.275 43C19.35 38.025 16.175 33.65 11.45 32.2C14.425 28.175 14.425 22.775 11.425 18.825C16.175 17.35 19.35 13.025 19.325 8.02501C20.45 8.40001 21.65 8.60001 22.85 8.60001C26.5 8.60001 29.925 6.82501 31.95 3.85001C34.05 6.82501 37.5 8.60001 41.15 8.60001C42.375 8.60001 43.6 8.40001 44.7 7.97501C44.65 12.9 47.775 17.225 52.475 18.775C49.55 22.775 49.55 28.1 52.475 32.125C47.75 33.65 44.6 38 44.7 42.925H44.675C39.975 41.325 34.825 43 32.025 47.1Z" fill="#E9C136"/>
<path d="M24.225 48.375C23.675 48.025 22.925 48.175 22.575 48.725L16.725 57.675L13.5 51.075L6.8 51.05L12.925 41.675C13.3 41.125 13.125 40.375 12.575 40.025C12.025 39.65 11.275 39.825 10.925 40.375L2.375 53.45L12.025 53.475L16.45 62.525L24.6 50.025C24.95 49.475 24.775 48.725 24.225 48.375Z" fill="#E9C136"/>
<path d="M53.075 40.35C52.7 39.8 51.975 39.65 51.425 40C50.875 40.375 50.725 41.1 51.075 41.65L57.225 51.05L50.525 51.075L47.3 57.675L41.425 48.7C41.05 48.15 40.325 48 39.775 48.35C39.225 48.725 39.075 49.45 39.425 50L47.6 62.525L52.025 53.475L61.675 53.45L53.075 40.35Z" fill="#E9C136"/>
</svg>
