<svg width="64" height="61" viewBox="0 0 64 61" fill="none" xmlns="http://www.w3.org/2000/svg">
<g filter="url(#filter0_d)">
<path d="M59 29.7C59.0104 29.6203 59.0104 29.5397 59 29.46C59.0019 24.9691 57.8836 20.5487 55.7464 16.599C53.6091 12.6493 50.5204 9.29502 46.76 6.84C46.6257 6.67803 46.4437 6.56256 46.24 6.51C43.1192 4.57245 39.634 3.29611 36 2.76V1C36 0.734784 35.8946 0.48043 35.7071 0.292893C35.5196 0.105357 35.2652 0 35 0H29C28.7348 0 28.4804 0.105357 28.2929 0.292893C28.1054 0.48043 28 0.734784 28 1V2.76C24.366 3.29611 20.8808 4.57245 17.76 6.51C17.5563 6.56256 17.3743 6.67803 17.24 6.84C13.4796 9.29502 10.3909 12.6493 8.25362 16.599C6.11638 20.5487 4.99808 24.9691 5 29.46C4.98963 29.5397 4.98963 29.6203 5 29.7C4.41004 29.95 3.90624 30.3674 3.55081 30.9005C3.19539 31.4337 3.0039 32.0593 3 32.7V35.2C3 35.629 3.08465 36.0537 3.24911 36.4499C3.41356 36.846 3.65459 37.2059 3.95836 37.5087C4.26214 37.8116 4.6227 38.0515 5.01938 38.2147C5.41606 38.378 5.84105 38.4613 6.27 38.46H57.73C58.159 38.4613 58.5839 38.378 58.9806 38.2147C59.3773 38.0515 59.7379 37.8116 60.0416 37.5087C60.3454 37.2059 60.5864 36.846 60.7509 36.4499C60.9153 36.0537 61 35.629 61 35.2V32.73C61.002 32.0841 60.8132 31.4521 60.4575 30.9131C60.1017 30.374 59.5947 29.952 59 29.7ZM30 2H34V17H30V2ZM17 9.47V15.47C17 15.7352 17.1054 15.9896 17.2929 16.1771C17.4804 16.3646 17.7348 16.47 18 16.47C18.2652 16.47 18.5196 16.3646 18.7071 16.1771C18.8946 15.9896 19 15.7352 19 15.47V8.11C21.7573 6.43419 24.8139 5.31003 28 4.8V18C28 18.2652 28.1054 18.5196 28.2929 18.7071C28.4804 18.8946 28.7348 19 29 19H35C35.2652 19 35.5196 18.8946 35.7071 18.7071C35.8946 18.5196 36 18.2652 36 18V4.8C39.1861 5.31003 42.2427 6.43419 45 8.11V15.46C45 15.7252 45.1054 15.9796 45.2929 16.1671C45.4804 16.3546 45.7348 16.46 46 16.46C46.2652 16.46 46.5196 16.3546 46.7071 16.1671C46.8946 15.9796 47 15.7252 47 15.46V9.46C50.1049 11.7887 52.625 14.8083 54.3607 18.2797C56.0964 21.751 57 25.5789 57 29.46H7C7.00155 25.5806 7.90592 21.7547 9.64156 18.2852C11.3772 14.8157 13.8964 11.7977 17 9.47ZM59 35.2C58.9974 35.5351 58.8624 35.8556 58.6245 36.0916C58.3866 36.3276 58.0651 36.46 57.73 36.46H6.27C5.9349 36.46 5.61338 36.3276 5.37549 36.0916C5.13761 35.8556 5.00264 35.5351 5 35.2V32.73C5 32.3932 5.1338 32.0701 5.37197 31.832C5.61015 31.5938 5.93318 31.46 6.27 31.46H57.73C58.0668 31.46 58.3899 31.5938 58.628 31.832C58.8662 32.0701 59 32.3932 59 32.73V35.2Z" fill="#E9C136"/>
<path d="M54.93 40.82C54.9348 40.7568 54.9348 40.6932 54.93 40.63C54.8892 40.5563 54.8424 40.486 54.79 40.42C54.7727 40.3798 54.7491 40.3427 54.72 40.31C54.6359 40.2267 54.5377 40.159 54.43 40.11C54.2967 40.0416 54.1498 40.004 54 40H10C9.86595 40.0003 9.73332 40.0275 9.61 40.08C9.50226 40.129 9.40407 40.1967 9.32 40.28C9.29095 40.3127 9.26732 40.3498 9.25 40.39C9.19763 40.456 9.1508 40.5263 9.11 40.6C9.10518 40.6632 9.10518 40.7268 9.11 40.79C9.06626 40.8561 9.0294 40.9264 9 41C9.20558 45.0212 10.6833 48.8731 13.22 52C15.1843 54.4558 17.6445 56.4696 20.44 57.91H20.5C20.6115 57.9541 20.7301 57.9778 20.85 57.98H43.1C43.2199 57.9778 43.3385 57.9541 43.45 57.91H43.51H43.56C46.3555 56.4696 48.8157 54.4558 50.78 52C53.3068 48.8867 54.784 45.0538 55 41.05C54.9847 40.9711 54.9612 40.894 54.93 40.82ZM13 42V48C12.0022 46.135 11.3613 44.1002 11.11 42H13ZM21.15 56C20.5385 55.6744 19.9444 55.3173 19.37 54.93C19.17 54.8 18.99 54.65 18.8 54.51C18.61 54.37 18.32 54.17 18.09 53.98C18.3359 53.9578 18.5649 53.8454 18.7329 53.6645C18.9009 53.4836 18.9961 53.2469 19 53C19 52.7348 18.8946 52.4804 18.7071 52.2929C18.5196 52.1054 18.2652 52 18 52H15.91L15.65 51.72C15.43 51.47 15.2 51.23 15 50.98V50H18C18.2652 50 18.5196 49.8946 18.7071 49.7071C18.8946 49.5196 19 49.2652 19 49C19 48.7348 18.8946 48.4804 18.7071 48.2929C18.5196 48.1054 18.2652 48 18 48H15V46H18C18.2652 46 18.5196 45.8946 18.7071 45.7071C18.8946 45.5196 19 45.2652 19 45C19 44.7348 18.8946 44.4804 18.7071 44.2929C18.5196 44.1054 18.2652 44 18 44H15V42H49V44H23C22.7348 44 22.4804 44.1054 22.2929 44.2929C22.1054 44.4804 22 44.7348 22 45C22 45.2652 22.1054 45.5196 22.2929 45.7071C22.4804 45.8946 22.7348 46 23 46H49V48H23C22.7348 48 22.4804 48.1054 22.2929 48.2929C22.1054 48.4804 22 48.7348 22 49C22 49.2652 22.1054 49.5196 22.2929 49.7071C22.4804 49.8946 22.7348 50 23 50H49V51C48.8 51.25 48.57 51.49 48.35 51.74L48.09 52.02H23C22.7348 52.02 22.4804 52.1254 22.2929 52.3129C22.1054 52.5004 22 52.7548 22 53.02C22 53.2852 22.1054 53.5396 22.2929 53.7271C22.4804 53.9146 22.7348 54.02 23 54.02H45.89L45.2 54.53C45.01 54.67 44.83 54.82 44.63 54.95C44.0552 55.3304 43.461 55.6809 42.85 56H21.15ZM51 48V42H52.89C52.6387 44.1002 51.9978 46.135 51 48Z" fill="#E9C136"/>
</g>
<defs>
<filter id="filter0_d" x="-1" y="0" width="66" height="65.98" filterUnits="userSpaceOnUse" color-interpolation-filters="sRGB">
<feFlood flood-opacity="0" result="BackgroundImageFix"/>
<feColorMatrix in="SourceAlpha" type="matrix" values="0 0 0 0 0 0 0 0 0 0 0 0 0 0 0 0 0 0 127 0"/>
<feOffset dy="4"/>
<feGaussianBlur stdDeviation="2"/>
<feColorMatrix type="matrix" values="0 0 0 0 0 0 0 0 0 0 0 0 0 0 0 0 0 0 0.25 0"/>
<feBlend mode="normal" in2="BackgroundImageFix" result="effect1_dropShadow"/>
<feBlend mode="normal" in="SourceGraphic" in2="effect1_dropShadow" result="shape"/>
</filter>
</defs>
</svg>
