<svg width="35" height="35" viewBox="0 0 35 35" fill="none" xmlns="http://www.w3.org/2000/svg">
<path d="M35 17.5C35 7.83502 27.165 0 17.5 0C7.83502 0 0 7.83502 0 17.5C0 27.165 7.83502 35 17.5 35C27.165 35 35 27.165 35 17.5Z" fill="#2A5B83"/>
<path d="M24.955 6.30009C24.9258 6.29981 24.8957 6.30116 24.8666 6.30193C22.645 6.35987 15.8967 6.32679 12.2371 6.3093V12.7511H7.86578V7.16772C6.9806 7.89632 6.31841 8.97253 6.31841 9.95482C6.31841 10.4339 6.31639 12.2178 6.31473 13.4327H13.0439L12.3863 14.1898H6.31473C6.30909 18.122 6.29999 23.1631 6.29999 24.9237C6.29999 26.7361 8.24456 28.7001 10.056 28.7001C12.5296 28.7001 21.1907 28.689 24.8113 28.689C26.7726 28.689 28.7 26.8745 28.7 24.863C28.7 21.8152 28.6957 17.6901 28.6926 14.1898H22.6174L21.9597 13.4327H28.6926C28.6916 12.2297 28.6889 10.6947 28.6889 9.95298C28.6889 8.1832 26.7933 6.31171 24.955 6.30009ZM23.3321 7.85298C24.2665 7.85354 25.1464 7.85298 26.1542 7.85298C26.4898 7.85298 26.8708 8.22461 26.8708 8.56035V11.4451C26.8708 11.7816 26.4906 12.1524 26.1542 12.1524C25.1803 12.1524 24.3679 12.1521 23.3302 12.1524C22.9901 12.1526 22.5953 11.7854 22.5953 11.4451C22.5953 10.5737 22.5957 9.50666 22.5953 8.56035C22.5951 8.22002 22.9919 7.8528 23.3321 7.85298ZM17.5018 11.8135C20.6757 11.8135 23.2492 14.3701 23.2492 17.524C23.2492 20.6779 20.6757 23.2345 17.5018 23.2345C14.328 23.2345 11.7563 20.6779 11.7563 17.524C11.7563 14.3701 14.328 11.8135 17.5018 11.8135ZM17.5055 12.4509C14.7277 12.4509 12.4766 14.7049 12.4766 17.4853C12.4766 20.2658 14.7277 22.5198 17.5055 22.5198C20.2833 22.5198 22.5363 20.2658 22.5363 17.4853C22.5363 14.7049 20.2833 12.4509 17.5055 12.4509ZM17.5534 13.6777C19.6247 13.6777 21.3021 15.3578 21.3021 17.4301C21.3021 19.5023 19.6247 21.1824 17.5534 21.1824C15.4822 21.1824 13.8029 19.5023 13.8029 17.4301C13.8029 15.3578 15.4822 13.6777 17.5534 13.6777Z" fill="white"/>
</svg>
