<svg width="38" height="38" viewBox="0 0 38 38" fill="none" xmlns="http://www.w3.org/2000/svg">
<path d="M16.0313 2.37268C15.8891 2.37278 15.7517 2.42386 15.6441 2.51664C15.5364 2.60942 15.4656 2.73774 15.4445 2.8783L14.8855 6.6449C14.299 6.8406 13.7291 7.07573 13.1761 7.35229L10.1193 5.08398C10.0047 4.999 9.86338 4.95808 9.72114 4.96873C9.57889 4.97938 9.44524 5.04087 9.34461 5.14197L5.14429 9.34229C5.0438 9.44278 4.98269 9.57598 4.97205 9.7177C4.96141 9.85942 5.00195 10.0003 5.08631 10.1146L7.3523 13.1692C7.07595 13.7234 6.83994 14.2955 6.6449 14.8832L2.88294 15.4398C2.74156 15.4605 2.61238 15.5314 2.51908 15.6396C2.42579 15.7478 2.37463 15.8861 2.375 16.0289V21.9664C2.37511 22.1086 2.42619 22.2459 2.51896 22.3536C2.61174 22.4613 2.74006 22.5321 2.88062 22.5532L6.64954 23.1122C6.84488 23.6975 7.08091 24.2674 7.35694 24.8192L5.08631 27.8784C5.00132 27.993 4.9604 28.1343 4.97105 28.2765C4.9817 28.4188 5.04319 28.5524 5.14429 28.6531L9.34461 32.8534C9.44553 32.9541 9.57934 33.0152 9.72157 33.0254C9.86381 33.0357 10.005 32.9943 10.1193 32.9091L13.1715 30.6454C13.7263 30.9221 14.2994 31.1574 14.8878 31.3528L15.4398 35.0823C15.4398 35.0838 15.4398 35.0854 15.4398 35.0869L15.4445 35.1147C15.455 35.1928 15.4809 35.268 15.5208 35.336C15.5606 35.404 15.6136 35.4633 15.6767 35.5106C15.7397 35.5579 15.8115 35.5921 15.8879 35.6114C15.9643 35.6306 16.0438 35.6345 16.1217 35.6227H21.8783C21.9603 35.6354 22.044 35.6309 22.1241 35.6093C22.2042 35.5877 22.2789 35.5495 22.3434 35.4973C22.4078 35.4451 22.4606 35.3799 22.4984 35.3061C22.5361 35.2322 22.558 35.1512 22.5625 35.0684L23.1145 31.3481C23.701 31.1524 24.2709 30.9173 24.8239 30.6407L27.8807 32.9091C27.9953 32.994 28.1366 33.035 28.2789 33.0243C28.4211 33.0137 28.5548 32.9522 28.6554 32.8511L32.8557 28.6508C32.9562 28.5503 33.0173 28.4171 33.028 28.2753C33.0386 28.1336 32.9981 27.9928 32.9137 27.8784L30.6477 24.8215C30.924 24.2673 31.1601 23.6976 31.3551 23.1099L35.1171 22.5509C35.2576 22.5304 35.3862 22.4601 35.4794 22.3528C35.5726 22.2456 35.6243 22.1085 35.625 21.9664V16.0289C35.6255 15.8864 35.5746 15.7485 35.4818 15.6403C35.389 15.5321 35.2603 15.461 35.1194 15.4398L31.3505 14.8809C31.1551 14.2955 30.9191 13.7257 30.6431 13.1738L32.9137 10.1146C32.9981 10.0003 33.0386 9.85942 33.028 9.7177C33.0173 9.57598 32.9562 9.44278 32.8557 9.34229L28.6554 5.14197C28.5551 5.04052 28.4215 4.9786 28.2793 4.96753C28.137 4.95645 27.9956 4.99697 27.8807 5.08167L24.8285 7.34534C24.2737 7.06865 23.7006 6.83328 23.1122 6.63794L22.5555 2.87598C22.5339 2.73584 22.4629 2.60807 22.3553 2.51576C22.2476 2.42345 22.1105 2.3727 21.9688 2.37268H16.0313ZM16.5438 3.56018H21.4562L21.9873 7.14355C22.0038 7.25536 22.0518 7.36014 22.1258 7.44559C22.1997 7.53105 22.2965 7.59363 22.4048 7.62598C23.1778 7.85647 23.9255 8.16473 24.636 8.54675C24.7354 8.60021 24.8479 8.62423 24.9605 8.61602C25.073 8.6078 25.1809 8.56769 25.2715 8.50037L28.1776 6.34338L31.6543 9.81775L29.4904 12.7332C29.4234 12.824 29.3837 12.9319 29.3759 13.0445C29.3681 13.157 29.3925 13.2695 29.4463 13.3687C29.8278 14.0764 30.136 14.8206 30.3671 15.5906C30.3992 15.6985 30.4615 15.7951 30.5465 15.869C30.6315 15.943 30.7358 15.9912 30.8472 16.0081L34.4375 16.5392V21.4539L30.8541 21.9827C30.7423 21.9991 30.6375 22.0472 30.5521 22.1211C30.4666 22.1951 30.4041 22.2919 30.3717 22.4001C30.1412 23.1732 29.8329 23.921 29.4509 24.6313C29.3971 24.7305 29.3727 24.843 29.3805 24.9555C29.3883 25.0681 29.428 25.176 29.495 25.2668L31.6543 28.1753L28.1776 31.6497L25.2645 29.488C25.174 29.4207 25.0661 29.3806 24.9535 29.3724C24.841 29.3642 24.7284 29.3882 24.629 29.4417C23.9704 29.7966 23.276 30.0818 22.5625 30.3068V25.1578C24.6885 23.9234 26.125 21.6275 26.125 18.9977C26.1219 16.3243 24.6191 13.8764 22.2378 12.6613C22.1475 12.6154 22.0469 12.5933 21.9457 12.5973C21.8445 12.6012 21.746 12.631 21.6595 12.6838C21.573 12.7365 21.5015 12.8105 21.4517 12.8987C21.4019 12.987 21.3755 13.0864 21.375 13.1877V18.6614L19 20.0854L16.625 18.6614V13.1808C16.625 13.1012 16.6091 13.0225 16.5781 12.9492C16.5471 12.8759 16.5017 12.8096 16.4446 12.7543C16.3875 12.6989 16.3198 12.6555 16.2456 12.6268C16.1714 12.5981 16.0922 12.5846 16.0127 12.587C15.9254 12.59 15.8399 12.6122 15.7622 12.652C13.3785 13.8685 11.8753 16.3214 11.875 18.9977C11.875 21.6275 13.3115 23.9234 15.4375 25.1578V30.3114C14.7213 30.0869 14.0253 29.8019 13.364 29.4463C13.2646 29.3928 13.1521 29.3688 13.0395 29.377C12.927 29.3852 12.8191 29.4254 12.7285 29.4927L9.82239 31.6497L6.3457 28.1753L8.50964 25.2599C8.5766 25.1691 8.6163 25.0611 8.62411 24.9485C8.63191 24.836 8.60749 24.7236 8.55371 24.6244C8.17225 23.9166 7.86396 23.1724 7.63294 22.4025C7.60075 22.2945 7.53853 22.1979 7.45352 22.124C7.3685 22.0501 7.26422 22.0019 7.15283 21.985L3.5625 21.4539V16.5415L7.14588 16.0104C7.25768 15.9939 7.36246 15.9459 7.44792 15.8719C7.53337 15.798 7.59595 15.7012 7.6283 15.5929C7.85877 14.8198 8.16707 14.0721 8.54907 13.3617C8.60286 13.2625 8.62727 13.1501 8.61947 13.0375C8.61167 12.925 8.57196 12.817 8.50501 12.7262L6.3457 9.81775L9.82239 6.34338L12.7355 8.505C12.826 8.57232 12.9339 8.61244 13.0465 8.62066C13.159 8.62887 13.2716 8.60485 13.371 8.55139C14.0786 8.16997 14.8252 7.85938 15.5952 7.6283C15.7027 7.59574 15.7988 7.53335 15.8723 7.44837C15.9458 7.36338 15.9937 7.2593 16.0104 7.14819L16.5438 3.56018ZM15.4375 14.5074V18.9977C15.4376 19.0999 15.4642 19.2004 15.5146 19.2894C15.565 19.3784 15.6375 19.4529 15.7251 19.5056L18.6938 21.2869C18.7863 21.3425 18.8921 21.3719 19 21.3719C19.1079 21.3719 19.2137 21.3425 19.3062 21.2869L22.2749 19.5056C22.3625 19.4529 22.435 19.3784 22.4854 19.2894C22.5358 19.2004 22.5624 19.0999 22.5625 18.9977V14.5144C23.9525 15.626 24.9354 17.1746 24.9375 18.9977C24.9375 22.2838 22.2862 24.9352 19 24.9352C15.7138 24.9352 13.0625 22.2838 13.0625 18.9977C13.0627 17.1726 14.0461 15.6205 15.4375 14.5074ZM16.625 25.7052C17.3695 25.9699 18.166 26.1227 19 26.1227C19.834 26.1227 20.6305 25.9699 21.375 25.7052V34.4352H16.625V25.7052Z" fill="white"/>
</svg>
