<svg width="23" height="23" viewBox="0 0 23 23" fill="none" xmlns="http://www.w3.org/2000/svg">
<g clip-path="url(#clip0)">
<path d="M6.37889 0.773416C6.01658 0.355148 5.51159 0.0866674 4.96222 0.0202384C4.41286 -0.0461905 3.85843 0.0941856 3.40686 0.414041C2.43489 1.11495 1.52256 1.89506 0.679205 2.74638C-2.01251 5.4381 3.88483 13.7253 6.58014 16.4206C8.79389 18.6343 14.7811 23.0008 18.3281 23.0008C18.6766 23.0208 19.0255 22.9704 19.354 22.8524C19.6825 22.7345 19.9839 22.5515 20.24 22.3143C21.0903 21.4701 21.8703 20.5578 22.5723 19.5867C22.8922 19.1351 23.0326 18.5807 22.9661 18.0313C22.8997 17.482 22.6312 16.977 22.213 16.6147C20.8869 15.479 17.6776 12.9634 16.5528 14.099C15.755 14.9004 13.6311 17.0243 12.5206 15.9175L7.08686 10.4658C5.97999 9.35529 8.10389 7.23138 8.9053 6.43357C10.0301 5.30873 7.51452 2.09951 6.37889 0.773416ZM5.83264 1.23701C7.89545 3.65201 8.76874 5.54951 8.39499 5.90888C8.24045 6.06701 8.03561 6.26826 7.82717 6.49466L3.87405 0.971072C4.17745 0.770963 4.5431 0.687636 4.90325 0.736536C5.26339 0.785436 5.59359 0.963247 5.83264 1.23701ZM17.0775 14.6058C17.4369 14.2464 19.3487 15.1053 21.7494 17.1681C22.0155 17.4021 22.1906 17.7224 22.2439 18.0728C22.2971 18.4232 22.2251 18.7811 22.0405 19.0836L16.7145 14.9615L17.0775 14.6058ZM6.58014 10.9725L12.0283 16.4206C13.3615 17.7539 15.2914 16.2912 16.4522 15.2095L21.8428 19.3783C21.2116 20.2407 20.5173 21.0551 19.7656 21.8148C17.7783 23.7986 10.368 19.1698 7.10483 15.9139C3.84171 12.6579 -0.797826 5.24045 1.18592 3.2531C1.9359 2.50415 2.74074 1.81222 3.59374 1.1831L7.57921 6.77857C6.53342 7.95373 5.33311 9.72544 6.58014 10.9725Z" fill="white"/>
<path d="M11.5 0C11.4047 0 11.3133 0.0378626 11.2459 0.105259C11.1785 0.172654 11.1406 0.264063 11.1406 0.359375C11.1406 0.454687 11.1785 0.546096 11.2459 0.613492C11.3133 0.680887 11.4047 0.71875 11.5 0.71875C14.3594 0.71875 17.1016 1.85463 19.1235 3.8765C21.1454 5.89838 22.2812 8.64063 22.2812 11.5C22.2812 11.5953 22.3191 11.6867 22.3865 11.7541C22.4539 11.8215 22.5453 11.8594 22.6406 11.8594C22.7359 11.8594 22.8273 11.8215 22.8947 11.7541C22.9621 11.6867 23 11.5953 23 11.5C23 8.45001 21.7884 5.52494 19.6317 3.36827C17.4751 1.2116 14.55 0 11.5 0V0Z" fill="white"/>
<path d="M20.7827 10.7812H20.8222C20.9164 10.7704 21.0025 10.7228 21.0617 10.6487C21.121 10.5747 21.1485 10.4802 21.1384 10.3859C20.896 8.20912 19.9204 6.17951 18.372 4.63044C16.8236 3.08136 14.7943 2.10494 12.6177 1.86154C12.5705 1.85635 12.5227 1.86051 12.4771 1.87377C12.4315 1.88703 12.389 1.90915 12.352 1.93885C12.2772 1.99883 12.2292 2.08607 12.2188 2.18139C12.2083 2.2767 12.2361 2.37227 12.2961 2.44708C12.356 2.52189 12.4433 2.56981 12.5386 2.58029C14.5521 2.80429 16.4295 3.70652 17.8624 5.13874C19.2953 6.57096 20.1984 8.44798 20.4233 10.4614C20.4331 10.5497 20.4752 10.6312 20.5416 10.6903C20.6079 10.7494 20.6938 10.7818 20.7827 10.7812Z" fill="white"/>
<path d="M18.3892 9.44797C18.4029 9.49327 18.4254 9.53544 18.4554 9.57206C18.4854 9.60868 18.5223 9.63904 18.564 9.66139C18.6057 9.68375 18.6514 9.69768 18.6985 9.70237C18.7456 9.70706 18.7931 9.70243 18.8384 9.68875C18.8838 9.67506 18.9259 9.65259 18.9625 9.6226C18.9992 9.59262 19.0295 9.55572 19.0519 9.51401C19.0742 9.47229 19.0882 9.42658 19.0929 9.37949C19.0975 9.33239 19.0929 9.28483 19.0792 9.23953C18.6834 7.9187 17.9497 6.72403 16.9507 5.77359C15.9517 4.82314 14.722 4.14981 13.3831 3.82015C13.2922 3.80135 13.1974 3.81851 13.1188 3.86803C13.0402 3.91755 12.9839 3.99559 12.9615 4.08577C12.9392 4.17596 12.9527 4.27128 12.9991 4.35174C13.0456 4.4322 13.1214 4.49155 13.2106 4.51734C14.4283 4.81748 15.5465 5.43021 16.4547 6.29496C17.3629 7.15971 18.0298 8.24653 18.3892 9.44797Z" fill="white"/>
<path d="M12.2187 7.90625C12.2187 7.525 12.0673 7.15937 11.7977 6.88978C11.5281 6.6202 11.1625 6.46875 10.7812 6.46875C10.4 6.46875 10.0343 6.6202 9.76477 6.88978C9.49518 7.15937 9.34373 7.525 9.34373 7.90625C9.34373 8.00156 9.38159 8.09297 9.44899 8.16037C9.51639 8.22776 9.60779 8.26562 9.70311 8.26562C9.79842 8.26562 9.88983 8.22776 9.95722 8.16037C10.0246 8.09297 10.0625 8.00156 10.0625 7.90625C10.0625 7.71563 10.1382 7.53281 10.273 7.39802C10.4078 7.26323 10.5906 7.1875 10.7812 7.1875C10.9719 7.1875 11.1547 7.26323 11.2895 7.39802C11.4243 7.53281 11.5 7.71563 11.5 7.90625C11.5 8.54953 10.2745 9.60609 9.50186 10.1236C9.43787 10.1666 9.38941 10.229 9.36363 10.3017C9.33784 10.3743 9.3361 10.4533 9.35866 10.527C9.38121 10.6007 9.42687 10.6653 9.4889 10.711C9.55092 10.7568 9.62602 10.7814 9.70311 10.7812H11.8594C11.9547 10.7812 12.0461 10.7434 12.1135 10.676C12.1809 10.6086 12.2187 10.5172 12.2187 10.4219C12.2187 10.3266 12.1809 10.2352 12.1135 10.1678C12.0461 10.1004 11.9547 10.0625 11.8594 10.0625H10.7812C11.4281 9.49828 12.2187 8.66812 12.2187 7.90625Z" fill="white"/>
<path d="M15.0938 10.7812C15.1891 10.7812 15.2805 10.7434 15.3479 10.676C15.4153 10.6086 15.4531 10.5172 15.4531 10.4219V6.82812C15.4531 6.73281 15.4153 6.6414 15.3479 6.57401C15.2805 6.50661 15.1891 6.46875 15.0938 6.46875C14.9984 6.46875 14.907 6.50661 14.8396 6.57401C14.7722 6.6414 14.7344 6.73281 14.7344 6.82812V8.26562H14.0156V6.82812C14.0156 6.73281 13.9778 6.6414 13.9104 6.57401C13.843 6.50661 13.7516 6.46875 13.6562 6.46875C13.5609 6.46875 13.4695 6.50661 13.4021 6.57401C13.3347 6.6414 13.2969 6.73281 13.2969 6.82812V8.26562C13.2969 8.45625 13.3726 8.63907 13.5074 8.77386C13.6422 8.90865 13.825 8.98438 14.0156 8.98438H14.7344V10.4219C14.7344 10.5172 14.7722 10.6086 14.8396 10.676C14.907 10.7434 14.9984 10.7812 15.0938 10.7812Z" fill="white"/>
<path d="M12.5781 12.2188H14.375C13.9222 12.8728 13.2969 13.9366 13.2969 14.7344C13.2969 14.8297 13.3347 14.9211 13.4021 14.9885C13.4695 15.0559 13.5609 15.0938 13.6563 15.0938C13.7516 15.0938 13.843 15.0559 13.9104 14.9885C13.9778 14.9211 14.0156 14.8297 14.0156 14.7344C14.0156 13.9545 14.9967 12.5566 15.3741 12.0822C15.4124 12.0315 15.4366 11.9715 15.4442 11.9083C15.4517 11.8452 15.4424 11.7812 15.4172 11.7228C15.3907 11.6583 15.346 11.6029 15.2886 11.5633C15.2312 11.5238 15.1635 11.5018 15.0938 11.5H12.5781C12.4828 11.5 12.3914 11.5379 12.324 11.6053C12.2566 11.6727 12.2188 11.7641 12.2188 11.8594C12.2188 11.9547 12.2566 12.0461 12.324 12.1135C12.3914 12.1809 12.4828 12.2188 12.5781 12.2188Z" fill="white"/>
</g>
<defs>
<clipPath id="clip0">
<rect width="23" height="23" fill="white"/>
</clipPath>
</defs>
</svg>
