<svg width="35" height="35" viewBox="0 0 35 35" fill="none" xmlns="http://www.w3.org/2000/svg">
<path d="M17.5 33.25C26.1985 33.25 33.25 26.1985 33.25 17.5C33.25 8.80152 26.1985 1.75 17.5 1.75C8.80152 1.75 1.75 8.80152 1.75 17.5C1.75 26.1985 8.80152 33.25 17.5 33.25Z" fill="#139BD0"/>
<path fill-rule="evenodd" clip-rule="evenodd" d="M18.0159 21.2637C17.4094 21.8545 16.8081 22.4355 16.2124 23.0211C16.0041 23.2262 15.77 23.3396 15.4711 23.3238C15.267 23.313 15.1529 23.2234 15.0903 23.0298C14.6339 21.6134 14.1708 20.2004 13.7169 18.7826C13.6728 18.645 13.6077 18.5782 13.4684 18.5351C12.3932 18.2068 11.3201 17.8708 10.2487 17.5303C10.0839 17.4778 9.91762 17.4092 9.77517 17.3122C9.55502 17.1631 9.52282 16.9199 9.72022 16.7449C9.90257 16.5835 10.1203 16.4428 10.3464 16.3532C11.6606 15.8324 12.9819 15.3284 14.301 14.8199C17.6488 13.5273 20.9965 12.2358 24.3446 10.9433C24.9813 10.6972 25.4706 11.0437 25.4044 11.7322C25.3621 12.1725 25.248 12.6058 25.1559 13.0405C24.429 16.4729 23.7013 19.9057 22.9705 23.3375C22.7969 24.1523 22.2247 24.3651 21.5541 23.8705C20.4309 23.0428 19.3088 22.2122 18.1864 21.3831C18.1328 21.3442 18.0772 21.3068 18.0159 21.2637ZM15.4949 22.306C15.5075 22.3025 15.5201 22.299 15.5327 22.2959C15.5397 22.2637 15.5498 22.2322 15.5526 22.2003C15.6247 21.4223 15.701 20.6446 15.7637 19.8651C15.7777 19.6915 15.8372 19.5683 15.9677 19.4514C17.003 18.5257 18.032 17.594 19.0631 16.6644C20.2045 15.635 21.3462 14.6067 22.4833 13.5732C22.5537 13.5095 22.5831 13.401 22.6314 13.3128C22.5243 13.3012 22.4095 13.2582 22.3122 13.2834C22.1795 13.3177 22.0539 13.3947 21.9356 13.4692C19.4166 15.0558 16.8998 16.6451 14.3791 18.2285C14.2366 18.3181 14.21 18.3941 14.2643 18.5505C14.4501 19.0843 14.6192 19.6229 14.7945 20.1605C15.028 20.8759 15.2614 21.591 15.4949 22.306Z" fill="white"/>
</svg>
