<svg width="35" height="35" viewBox="0 0 35 35" fill="none" xmlns="http://www.w3.org/2000/svg">
<path d="M35 17.5C35 7.83502 27.165 0 17.5 0C7.83502 0 0 7.83502 0 17.5C0 27.165 7.83502 35 17.5 35C27.165 35 35 27.165 35 17.5Z" fill="#537599"/>
<path d="M18.2894 11.1812C17.0972 11.1867 16.337 11.1882 15.2653 11.1882C14.369 11.1882 13.8656 11.551 13.8495 11.7674C13.8349 11.9653 14.2924 12.1253 14.5706 12.2855C14.8391 12.4519 15.0816 12.9803 15.0816 13.3372V16.4506C15.0816 16.7464 15.0144 16.9525 14.7753 17.1453C14.6615 17.2372 14.5261 17.2616 14.3798 17.2608C14.2614 17.2602 14.1004 17.2381 13.9896 17.0946C12.8089 15.5662 12.805 15.3775 11.151 12.2977C11.0708 12.1483 10.9915 11.9898 10.8272 11.8707C10.6629 11.7515 10.4195 11.6729 10.0292 11.6729C8.69975 11.6729 7.87929 11.6922 7.00512 11.6922C6.17769 11.6922 6.25728 12.1996 6.36811 12.4307C7.36012 14.4992 8.36734 16.4742 9.52519 18.4789C10.8811 20.8265 12.1207 22.2366 14.2066 23.2495C14.6907 23.4846 15.5637 23.7272 16.5726 23.7272H18.7164C18.9919 23.7272 19.4497 23.5099 19.4497 23.218V21.6097C19.4497 21.1497 19.9083 20.9825 20.1585 20.8694C20.4532 20.7362 20.7623 20.9462 20.918 21.1127C22.1165 22.3939 21.9803 22.2545 23.0723 23.4017C23.319 23.661 23.5054 23.7972 23.9718 23.7972C27.1214 23.7972 27.124 23.8033 27.8762 23.7972C28.0827 23.7956 28.3894 23.4858 28.4572 23.365C28.5466 23.2056 28.75 22.6365 28.4239 22.2677C27.3171 21.0161 26.1889 19.8701 25.1076 18.7326C25.0251 18.6459 24.9628 18.5285 24.9606 18.4089C24.9581 18.278 25.0311 18.151 25.1076 18.0449C26.3203 16.3616 27.3221 14.9363 28.4117 13.1657C28.7658 12.5902 28.72 12.1826 28.6549 12.0422C28.5795 11.8796 28.3474 11.6551 28.0809 11.6537C26.6259 11.6455 25.9965 11.6252 24.4443 11.6274C23.9807 11.6281 23.5701 11.5925 23.3155 12.1507C22.6334 13.6464 21.5204 15.9288 20.554 16.8776C20.3755 17.0527 20.1372 17.1828 19.9292 17.1838C19.7212 17.1848 19.5 17.0432 19.4689 16.7043C19.4451 15.0765 19.4649 13.6877 19.4567 12.0929C19.4542 11.6055 19.2486 11.4801 19.0927 11.3719C18.8811 11.2252 18.5469 11.18 18.2894 11.1812Z" fill="white"/>
</svg>
