<svg width="35" height="35" viewBox="0 0 35 35" fill="none" xmlns="http://www.w3.org/2000/svg">
<path d="M17.5 35C7.8365 35 0 27.1635 0 17.5C0 7.8365 7.8365 0 17.5 0C27.1635 0 35 7.8365 35 17.5C35 27.1635 27.1635 35 17.5 35Z" fill="#25D366"/>
<path fill-rule="evenodd" clip-rule="evenodd" d="M25.6865 9.35203C23.5165 7.17853 20.6255 5.98153 17.549 5.97803C11.2105 5.97803 6.04799 11.137 6.04799 17.479C6.04799 19.5055 6.57649 21.4865 7.58449 23.2295L5.95349 29.19L12.0505 27.5905C13.7305 28.5075 15.6205 28.9905 17.5455 28.9905H17.549C23.8875 28.9905 29.0465 23.8315 29.05 17.4895C29.0535 14.4165 27.86 11.5255 25.6865 9.35203ZM17.5525 27.048H17.549C15.834 27.048 14.1505 26.586 12.684 25.7145L12.334 25.508L8.71499 26.4565L9.68099 22.9285L9.45349 22.568C8.49799 21.0455 7.99049 19.2885 7.99049 17.479C7.99399 12.208 12.2815 7.92053 17.556 7.92053C20.111 7.92053 22.5085 8.91803 24.3145 10.724C26.1205 12.53 27.1145 14.9345 27.111 17.486C27.111 22.7605 22.82 27.048 17.5525 27.048ZM22.7955 19.887C22.5085 19.7435 21.0945 19.047 20.832 18.9525C20.5695 18.858 20.377 18.809 20.1845 19.096C19.992 19.383 19.4425 20.0305 19.2745 20.223C19.1065 20.4155 18.9385 20.44 18.6515 20.2965C18.3645 20.153 17.437 19.8485 16.3415 18.8685C15.4875 18.1055 14.91 17.164 14.742 16.877C14.574 16.59 14.7245 16.4325 14.868 16.289C14.9975 16.1595 15.155 15.953 15.2985 15.785C15.442 15.617 15.491 15.498 15.5855 15.3055C15.68 15.113 15.6345 14.945 15.561 14.8015C15.4875 14.658 14.9135 13.244 14.6755 12.6665C14.441 12.1065 14.2065 12.1835 14.028 12.173C13.86 12.166 13.6675 12.1625 13.4785 12.1625C13.286 12.1625 12.9745 12.236 12.712 12.523C12.4495 12.81 11.7075 13.5065 11.7075 14.9205C11.7075 16.3345 12.7365 17.703 12.88 17.892C13.0235 18.0845 14.9065 20.986 17.7905 22.232C18.4765 22.5295 19.012 22.7045 19.4285 22.8375C20.118 23.058 20.7445 23.0265 21.238 22.953C21.791 22.869 22.939 22.2565 23.177 21.588C23.415 20.916 23.415 20.342 23.345 20.223C23.275 20.104 23.0825 20.034 22.7955 19.887Z" fill="white"/>
</svg>
